  0
SECTION
  2
HEADER
  9
$ACADVER
  1
AC1014
  9
$HANDSEED
  5
FFFF
  9
$MEASUREMENT
 70
     1
  0
ENDSEC
  0
SECTION
  2
TABLES
  0
TABLE
  2
VPORT
  5
8
330
0
100
AcDbSymbolTable
 70
     4
  0
VPORT
  5
2E
330
8
100
AcDbSymbolTableRecord
100
AcDbViewportTableRecord
  2
*ACTIVE
 70
     0
 10
0.0
 20
0.0
 11
1.0
 21
1.0
 12
210.0
 22
148.5
 13
0.0
 23
0.0
 14
10.0
 24
10.0
 15
10.0
 25
10.0
 16
0.0
 26
0.0
 36
1.0
 17
0.0
 27
0.0
 37
0.0
 40
341.0
 41
1.24
 42
50.0
 43
0.0
 44
0.0
 50
0.0
 51
0.0
 71
     0
 72
   100
 73
     1
 74
     3
 75
     0
 76
     0
 77
     0
 78
     0
  0
ENDTAB
  0
TABLE
  2
LTYPE
  5
5
330
0
100
AcDbSymbolTable
 70
     1
  0
LTYPE
  5
14
330
5
100
AcDbSymbolTableRecord
100
AcDbLinetypeTableRecord
  2
BYBLOCK
 70
     0
  3

 72
    65
 73
     0
 40
0.0
  0
LTYPE
  5
15
330
5
100
AcDbSymbolTableRecord
100
AcDbLinetypeTableRecord
  2
BYLAYER
 70
     0
  3

 72
    65
 73
     0
 40
0.0
  0
LTYPE
  5
16
330
5
100
AcDbSymbolTableRecord
100
AcDbLinetypeTableRecord
  2
CONTINUOUS
 70
     0
  3
Solid line
 72
    65
 73
     0
 40
0.0
  0
ENDTAB
  0
TABLE
  2
LAYER
  5
2
100
AcDbSymbolTable
 70
2
  0
LAYER
  5
50
100
AcDbSymbolTableRecord
100
AcDbLayerTableRecord
  2
0
 70
0
  6
CONTINUOUS
  0
LAYER
  5
51
100
AcDbSymbolTableRecord
100
AcDbLayerTableRecord
  2
Layer_1
 70
0
  6
CONTINUOUS
  0
ENDTAB
  0
TABLE
  2
STYLE
  5
3
330
0
100
AcDbSymbolTable
 70
     1
  0
STYLE
  5
11
330
3
100
AcDbSymbolTableRecord
100
AcDbTextStyleTableRecord
  2
STANDARD
 70
     0
 40
0.0
 41
1.0
 50
0.0
 71
     0
 42
2.5
  3
txt
  4

  0
ENDTAB
  0
TABLE
  2
VIEW
  5
6
330
0
100
AcDbSymbolTable
 70
     0
  0
ENDTAB
  0
TABLE
  2
UCS
  5
7
330
0
100
AcDbSymbolTable
 70
     0
  0
ENDTAB
  0
TABLE
  2
APPID
  5
9
330
0
100
AcDbSymbolTable
 70
     2
  0
APPID
  5
12
330
9
100
AcDbSymbolTableRecord
100
AcDbRegAppTableRecord
  2
ACAD
 70
     0
  0
ENDTAB
  0
TABLE
  2
DIMSTYLE
  5
A
330
0
100
AcDbSymbolTable
 70
     1
  0
DIMSTYLE
105
27
330
A
100
AcDbSymbolTableRecord
100
AcDbDimStyleTableRecord
  2
ISO-25
 70
     0
  3

  4

  5

  6

  7

 40
1.0
 41
2.5
 42
0.625
 43
3.75
 44
1.25
 45
0.0
 46
0.0
 47
0.0
 48
0.0
140
2.5
141
2.5
142
0.0
143
0.03937007874016
144
1.0
145
0.0
146
1.0
147
0.625
 71
     0
 72
     0
 73
     0
 74
     0
 75
     0
 76
     0
 77
     1
 78
     8
170
     0
171
     3
172
     1
173
     0
174
     0
175
     0
176
     0
177
     0
178
     0
270
     2
271
     2
272
     2
273
     2
274
     3
340
11
275
     0
280
     0
281
     0
282
     0
283
     0
284
     8
285
     0
286
     0
287
     3
288
     0
  0
ENDTAB
  0
TABLE
  2
BLOCK_RECORD
  5
1
330
0
100
AcDbSymbolTable
 70
     1
  0
BLOCK_RECORD
  5
1F
330
1
100
AcDbSymbolTableRecord
100
AcDbBlockTableRecord
  2
*MODEL_SPACE
  0
BLOCK_RECORD
  5
1B
330
1
100
AcDbSymbolTableRecord
100
AcDbBlockTableRecord
  2
*PAPER_SPACE
  0
ENDTAB
  0
ENDSEC
  0
SECTION
  2
BLOCKS
  0
BLOCK
  5
20
330
1F
100
AcDbEntity
  8
0
100
AcDbBlockBegin
  2
*MODEL_SPACE
 70
     0
 10
0.0
 20
0.0
 30
0.0
  3
*MODEL_SPACE
  1

  0
ENDBLK
  5
21
330
1F
100
AcDbEntity
  8
0
100
AcDbBlockEnd
  0
BLOCK
  5
1C
330
1B
100
AcDbEntity
 67
     1
  8
0
100
AcDbBlockBegin
  2
*PAPER_SPACE
  1

  0
ENDBLK
  5
1D
330
1B
100
AcDbEntity
 67
     1
  8
0
100
AcDbBlockEnd
  0
ENDSEC
  0
SECTION
  2
ENTITIES
  0
SPLINE
  5
100
100
AcDbEntity
  8
Layer_1
 62
7
100
AcDbSpline
 70
8
 71
3
 72
8
 73
4
 74
0
 40
0
 40
0
 40
0
 40
0
 40
1
 40
1
 40
1
 40
1
 10
30.633056
 20
16.976274
 30
0.0
 10
30.630857
 20
20.656829
 30
0.0
 10
30.623740
 20
21.335809
 30
0.0
 10
30.588144
 20
21.255943
 30
0.0
  0
SPLINE
  5
101
100
AcDbEntity
  8
Layer_1
 62
7
100
AcDbSpline
 70
8
 71
3
 72
8
 73
4
 74
0
 40
0
 40
0
 40
0
 40
0
 40
1
 40
1
 40
1
 40
1
 10
30.588144
 20
21.255943
 30
0.0
 10
30.564860
 20
21.203729
 30
0.0
 10
29.681755
 20
19.260080
 30
0.0
 10
28.625686
 20
16.936719
 30
0.0
  0
SPLINE
  5
102
100
AcDbEntity
  8
Layer_1
 62
7
100
AcDbSpline
 70
8
 71
3
 72
8
 73
4
 74
0
 40
0
 40
0
 40
0
 40
0
 40
1
 40
1
 40
1
 40
1
 10
28.625686
 20
16.936719
 30
0.0
 10
27.569622
 20
14.613358
 30
0.0
 10
26.698220
 20
12.687510
 30
0.0
 10
26.689245
 20
12.657054
 30
0.0
  0
SPLINE
  5
103
100
AcDbEntity
  8
Layer_1
 62
7
100
AcDbSpline
 70
8
 71
3
 72
8
 73
4
 74
0
 40
0
 40
0
 40
0
 40
0
 40
1
 40
1
 40
1
 40
1
 10
26.689245
 20
12.657054
 30
0.0
 10
26.673813
 20
12.604731
 30
0.0
 10
26.782154
 20
12.601681
 30
0.0
 10
28.654281
 20
12.601681
 30
0.0
  0
LWPOLYLINE
  5
104
100
AcDbEntity
  8
Layer_1
 62
7
100
AcDbPolyline
 90
6
 70
1
 10
49.999966
 20
16.490024
 30
0.0
 10
24.483946
 20
8.181206
 30
0.0
 10
0.037302
 20
0.000069
 30
0.0
 10
0.229195
 20
16.747491
 30
0.0
 10
0.078291
 20
32.902905
 30
0.0
 10
25.402418
 20
24.464302
 30
0.0
  0
SPLINE
  5
105
100
AcDbEntity
  8
Layer_1
 62
7
100
AcDbSpline
 70
8
 71
3
 72
8
 73
4
 74
0
 40
0
 40
0
 40
0
 40
0
 40
1
 40
1
 40
1
 40
1
 10
33.467514
 20
12.720340
 30
0.0
 10
33.441609
 20
12.785601
 30
0.0
 10
32.908122
 20
14.149004
 30
0.0
 10
32.281974
 20
15.750124
 30
0.0
  0
LWPOLYLINE
  5
106
100
AcDbEntity
  8
Layer_1
 62
7
100
AcDbPolyline
 90
3
 70
0
 10
28.654281
 20
12.601681
 30
0.0
 10
30.635636
 20
12.601681
 30
0.0
 10
30.633056
 20
16.976274
 30
0.0
  0
LWPOLYLINE
  5
107
100
AcDbEntity
  8
Layer_1
 62
7
100
AcDbPolyline
 90
8
 70
0
 10
32.281974
 20
15.750124
 30
0.0
 10
31.143529
 20
18.661242
 30
0.0
 10
31.142456
 20
15.631461
 30
0.0
 10
31.141383
 20
12.601681
 30
0.0
 10
32.327727
 20
12.601681
 30
0.0
 10
33.514066
 20
12.601681
 30
0.0
 10
33.466976
 20
12.720340
 30
0.0
 10
33.467514
 20
12.720340
 30
0.0
  0
SPLINE
  5
108
100
AcDbEntity
  8
Layer_1
 62
7
100
AcDbSpline
 70
8
 71
3
 72
8
 73
4
 74
0
 40
0
 40
0
 40
0
 40
0
 40
1
 40
1
 40
1
 40
1
 10
10.897408
 20
13.248498
 30
0.0
 10
9.673999
 20
13.450887
 30
0.0
 10
8.773449
 20
14.182797
 30
0.0
 10
8.395228
 20
15.282115
 30
0.0
  0
SPLINE
  5
109
100
AcDbEntity
  8
Layer_1
 62
7
100
AcDbSpline
 70
8
 71
3
 72
8
 73
4
 74
0
 40
0
 40
0
 40
0
 40
0
 40
1
 40
1
 40
1
 40
1
 10
8.395228
 20
15.282115
 30
0.0
 10
8.132364
 20
16.046144
 30
0.0
 10
8.172400
 20
17.127460
 30
0.0
 10
8.491978
 20
17.895121
 30
0.0
  0
SPLINE
  5
10a
100
AcDbEntity
  8
Layer_1
 62
7
100
AcDbSpline
 70
8
 71
3
 72
8
 73
4
 74
0
 40
0
 40
0
 40
0
 40
0
 40
1
 40
1
 40
1
 40
1
 10
8.491978
 20
17.895121
 30
0.0
 10
8.783964
 20
18.596504
 30
0.0
 10
9.432856
 20
19.237760
 30
0.0
 10
10.117951
 20
19.501960
 30
0.0
  0
SPLINE
  5
10b
100
AcDbEntity
  8
Layer_1
 62
7
100
AcDbSpline
 70
8
 71
3
 72
8
 73
4
 74
0
 40
0
 40
0
 40
0
 40
0
 40
1
 40
1
 40
1
 40
1
 10
10.117951
 20
19.501960
 30
0.0
 10
10.546102
 20
19.667074
 30
0.0
 10
10.815967
 20
19.722172
 30
0.0
 10
11.296317
 20
19.742552
 30
0.0
  0
SPLINE
  5
10c
100
AcDbEntity
  8
Layer_1
 62
7
100
AcDbSpline
 70
8
 71
3
 72
8
 73
4
 74
0
 40
0
 40
0
 40
0
 40
0
 40
1
 40
1
 40
1
 40
1
 10
11.296317
 20
19.742552
 30
0.0
 10
11.883293
 20
19.767454
 30
0.0
 10
12.504682
 20
19.686873
 30
0.0
 10
13.183588
 20
19.497816
 30
0.0
  0
LWPOLYLINE
  5
10d
100
AcDbEntity
  8
Layer_1
 62
7
100
AcDbPolyline
 90
6
 70
1
 10
21.458290
 20
16.431981
 30
0.0
 10
10.773028
 20
8.167708
 30
0.0
 10
0.033417
 20
0.029252
 30
0.0
 10
-0.000003
 20
16.480733
 30
0.0
 10
0.075595
 20
32.931967
 30
0.0
 10
10.794278
 20
24.744756
 30
0.0
  0
SPLINE
  5
10e
100
AcDbEntity
  8
Layer_1
 62
7
100
AcDbSpline
 70
8
 71
3
 72
8
 73
4
 74
0
 40
0
 40
0
 40
0
 40
0
 40
1
 40
1
 40
1
 40
1
 10
12.898805
 20
18.599263
 30
0.0
 10
12.185169
 20
18.839844
 30
0.0
 10
11.479832
 20
18.927124
 30
0.0
 10
11.017627
 20
18.832046
 30
0.0
  0
SPLINE
  5
10f
100
AcDbEntity
  8
Layer_1
 62
7
100
AcDbSpline
 70
8
 71
3
 72
8
 73
4
 74
0
 40
0
 40
0
 40
0
 40
0
 40
1
 40
1
 40
1
 40
1
 10
11.017627
 20
18.832046
 30
0.0
 10
10.477375
 20
18.720912
 30
0.0
 10
9.958287
 20
18.302343
 30
0.0
 10
9.686386
 20
17.758595
 30
0.0
  0
SPLINE
  5
110
100
AcDbEntity
  8
Layer_1
 62
7
100
AcDbSpline
 70
8
 71
3
 72
8
 73
4
 74
0
 40
0
 40
0
 40
0
 40
0
 40
1
 40
1
 40
1
 40
1
 10
9.686386
 20
17.758595
 30
0.0
 10
9.461706
 20
17.309276
 30
0.0
 10
9.426218
 20
17.141079
 30
0.0
 10
9.426115
 20
16.524983
 30
0.0
  0
SPLINE
  5
111
100
AcDbEntity
  8
Layer_1
 62
7
100
AcDbSpline
 70
8
 71
3
 72
8
 73
4
 74
0
 40
0
 40
0
 40
0
 40
0
 40
1
 40
1
 40
1
 40
1
 10
9.426115
 20
16.524983
 30
0.0
 10
9.426052
 20
16.065977
 30
0.0
 10
9.434992
 20
15.974198
 30
0.0
 10
9.500129
 20
15.765559
 30
0.0
  0
SPLINE
  5
112
100
AcDbEntity
  8
Layer_1
 62
7
100
AcDbSpline
 70
8
 71
3
 72
8
 73
4
 74
0
 40
0
 40
0
 40
0
 40
0
 40
1
 40
1
 40
1
 40
1
 10
9.500129
 20
15.765559
 30
0.0
 10
9.608893
 20
15.417238
 30
0.0
 10
9.772712
 20
15.127354
 30
0.0
 10
9.998772
 20
14.883184
 30
0.0
  0
SPLINE
  5
113
100
AcDbEntity
  8
Layer_1
 62
7
100
AcDbSpline
 70
8
 71
3
 72
8
 73
4
 74
0
 40
0
 40
0
 40
0
 40
0
 40
1
 40
1
 40
1
 40
1
 10
9.998772
 20
14.883184
 30
0.0
 10
10.701470
 20
14.124206
 30
0.0
 10
11.721545
 20
13.965672
 30
0.0
 10
13.104481
 20
14.400515
 30
0.0
  0
LWPOLYLINE
  5
114
100
AcDbEntity
  8
Layer_1
 62
7
100
AcDbPolyline
 90
5
 70
0
 10
13.183588
 20
19.497816
 30
0.0
 10
13.302248
 20
19.464774
 30
0.0
 10
13.302248
 20
18.964015
 30
0.0
 10
13.302248
 20
18.463253
 30
0.0
 10
12.898805
 20
18.599263
 30
0.0
  0
SPLINE
  5
115
100
AcDbEntity
  8
Layer_1
 62
7
100
AcDbSpline
 70
8
 71
3
 72
8
 73
4
 74
0
 40
0
 40
0
 40
0
 40
0
 40
1
 40
1
 40
1
 40
1
 10
13.056507
 20
13.463104
 30
0.0
 10
12.869553
 20
13.406293
 30
0.0
 10
12.574198
 20
13.331570
 30
0.0
 10
12.400164
 20
13.297054
 30
0.0
  0
SPLINE
  5
116
100
AcDbEntity
  8
Layer_1
 62
7
100
AcDbSpline
 70
8
 71
3
 72
8
 73
4
 74
0
 40
0
 40
0
 40
0
 40
0
 40
1
 40
1
 40
1
 40
1
 10
12.400164
 20
13.297054
 30
0.0
 10
11.976539
 20
13.213036
 30
0.0
 10
11.252828
 20
13.189656
 30
0.0
 10
10.897139
 20
13.248498
 30
0.0
  0
LWPOLYLINE
  5
117
100
AcDbEntity
  8
Layer_1
 62
7
100
AcDbPolyline
 90
5
 70
0
 10
13.104481
 20
14.400515
 30
0.0
 10
13.397176
 20
14.492550
 30
0.0
 10
13.396801
 20
14.029473
 30
0.0
 10
13.396425
 20
13.566399
 30
0.0
 10
13.056507
 20
13.463104
 30
0.0
  0
LWPOLYLINE
  5
118
100
AcDbEntity
  8
Layer_1
 62
7
100
AcDbPolyline
 90
2
 70
0
 10
10.897139
 20
13.248498
 30
0.0
 10
10.897408
 20
13.248498
 30
0.0
  0
LWPOLYLINE
  5
119
100
AcDbEntity
  8
Layer_1
 62
7
100
AcDbPolyline
 90
20
 70
1
 10
11.182192
 20
16.477517
 30
0.0
 10
11.182192
 20
17.980543
 30
0.0
 10
12.258041
 20
17.980543
 30
0.0
 10
13.333892
 20
17.980543
 30
0.0
 10
13.333892
 20
17.759046
 30
0.0
 10
13.333892
 20
17.537549
 30
0.0
 10
12.527005
 20
17.537549
 30
0.0
 10
11.720118
 20
17.537549
 30
0.0
 10
11.720118
 20
17.078732
 30
0.0
 10
11.720118
 20
16.619911
 30
0.0
 10
12.416255
 20
16.619911
 30
0.0
 10
13.112393
 20
16.619911
 30
0.0
 10
13.112393
 20
16.414236
 30
0.0
 10
13.112393
 20
16.208559
 30
0.0
 10
12.416255
 20
16.208559
 30
0.0
 10
11.720118
 20
16.208559
 30
0.0
 10
11.720118
 20
15.591527
 30
0.0
 10
11.720118
 20
14.974496
 30
0.0
 10
11.451156
 20
14.974496
 30
0.0
 10
11.182192
 20
14.974496
 30
0.0
  0
ENDSEC
  0
SECTION
  2
OBJECTS
  0
DICTIONARY
  5
C
330
0
100
AcDbDictionary
  3
ACAD_GROUP
350
D
  3
ACAD_MLINESTYLE
350
17
  0
DICTIONARY
  5
D
330
C
100
AcDbDictionary
  0
DICTIONARY
  5
1A
330
C
100
AcDbDictionary
  0
DICTIONARY
  5
17
330
C
100
AcDbDictionary
  3
STANDARD
350
18
  0
DICTIONARY
  5
19
330
C
100
AcDbDictionary
  0
ENDSEC
  0
EOF
